<?xml version="1.0" encoding="UTF-8"?>
<svg width="69px" height="68px" viewBox="0 0 69 68" version="1.1" xmlns="http://www.w3.org/2000/svg" xmlns:xlink="http://www.w3.org/1999/xlink">
    <g id="Page-1" stroke="none" stroke-width="1" fill="none" fill-rule="evenodd">
        <g id="tag" fill-rule="nonzero" fill="#fff">
            <path d="M67.9,1.1 C68.3,1.5 68.5,2.1 68.5,2.7 L68.5,31.1 C68.5,31.9 68.1,32.6 67.2,33.5 L34,66.7 C33.2,67.5 32.1,68 30.8,68 C29.5,68 28.5,67.6 27.6,66.7 L2.1,41.2 C1.3,40.4 0.8,39.3 0.8,38 C0.8,36.7 1.2,35.7 2.1,34.8 L35.3,1.6 C36.1,0.9 36.9,0.4 37.7,0.3 L66,0.3 L66.1,0.3 L66.2,0.3 C67,0.5 67.6,0.7 67.9,1.1 Z M64,5 L38.7,5 C38.6,5.1 38.5,5.1 38.4,5.1 L5.5,38 L31,63.5 L63.9,30.6 L64,30.3 L64,5 Z M57.2,9.5 C57.9,9.5 58.4,9.7 58.8,10.1 C59.2,10.5 59.4,11.1 59.4,11.7 C59.4,12.4 59.2,12.9 58.8,13.3 C58.4,13.7 57.8,13.9 57.2,13.9 C56.5,13.9 56,13.7 55.6,13.3 C55.2,12.9 55,12.3 55,11.7 C55,11 55.2,10.5 55.6,10.1 C56,9.7 56.6,9.5 57.2,9.5 Z" id="Shape"></path>
        </g>
    </g>
</svg>